<svg width="32" height="32" viewBox="0 0 32 32" fill="none" xmlns="http://www.w3.org/2000/svg">
<path fill-rule="evenodd" clip-rule="evenodd" d="M32 16C32 24.8366 24.8366 32 16 32C7.16344 32 0 24.8366 0 16C0 7.16344 7.16344 0 16 0C24.8366 0 32 7.16344 32 16ZM16.0001 16.3838C14.3105 16.3838 12.9281 15.0014 12.9281 13.3118C12.9281 11.6222 14.3105 10.2398 16.0001 10.2398C17.6897 10.2398 19.0721 11.6222 19.0721 13.3118C19.0721 15.0014 17.6897 16.3838 16.0001 16.3838ZM16.0001 11.699C15.1169 11.699 14.3873 12.4286 14.3873 13.3118C14.3873 14.195 15.1169 14.9246 16.0001 14.9246C16.8833 14.9246 17.6129 14.195 17.6129 13.3118C17.6129 12.4286 16.8833 11.699 16.0001 11.699ZM18.2272 16.5374C18.5728 16.307 19.0336 16.3454 19.3024 16.691C19.5712 16.9982 19.4944 17.4974 19.1488 17.7662C19.1424 17.7662 19.1149 17.7831 19.0672 17.8124C18.8278 17.9596 18.0809 18.4189 16.96 18.611L18.9952 20.6846C19.3024 20.9918 19.3024 21.4526 18.9952 21.7598C18.8416 21.9134 18.6496 21.9902 18.4576 21.9902C18.2656 21.9902 18.0736 21.9134 17.92 21.7598L16 19.8014L14.08 21.7598C13.9264 21.9134 13.7344 21.9902 13.5424 21.9902C13.3504 21.9902 13.1584 21.9134 13.0048 21.7598C12.6976 21.491 12.6976 20.9918 13.0048 20.6846L15.04 18.611C13.696 18.419 12.8896 17.8046 12.8512 17.7662C12.5056 17.4974 12.4288 17.0366 12.6976 16.691C12.9664 16.3454 13.4272 16.2686 13.7728 16.5374C13.7728 16.5374 14.6176 17.1518 16 17.1518C17.3824 17.1518 18.2272 16.5374 18.2272 16.5374Z" fill="#D4DAD2"/>
</svg>
