<svg width="139" height="124" viewBox="0 0 139 124" fill="none" xmlns="http://www.w3.org/2000/svg">
<path fill-rule="evenodd" clip-rule="evenodd" d="M15.2004 87.5854C15.8005 88.4011 16.6806 90.2771 17.2406 91.2559C17.8007 92.2346 19.1208 94.4369 19.6808 94.6C19.5208 94.1106 19.0408 93.7028 18.7608 93.2542C18.4807 92.8056 18.2007 91.99 17.9607 91.786C17.7207 91.5821 16.3605 89.543 16.2405 88.8089C16.6458 89.3433 17.0199 89.9016 17.3606 90.481C17.7607 91.0112 18.1607 91.4598 18.6007 91.99C19.3928 93.0493 20.1273 94.1521 20.8009 95.2934L20.6009 95.4157C21.481 97.5772 24.7213 100.024 26.0814 102.349C26.4014 102.92 27.4415 104.347 27.9216 104.673L27.0015 104.021L27.3215 104.51C26.727 104.034 26.1779 103.501 25.6814 102.92C25.4013 102.593 24.9213 102.308 24.8013 102.145C24.6813 101.982 24.3612 101.492 24.1212 101.166C23.8812 100.84 21.561 97.3325 21.441 97.2917V97.5772C20.4809 96.7615 20.5209 96.1906 19.9609 95.4973L19.7608 95.742L18.4007 93.6213L18.5607 94.2738L18.1207 93.7028V93.9067C17.4006 92.7648 15.2004 88.7273 15.2004 87.5854ZM12.9202 80.7747L13.4403 81.7943C13.4803 81.2233 13.0803 80.4892 12.9602 79.9183C13.3219 80.3988 13.6304 80.9185 13.8803 81.468C14.1603 81.9166 14.0403 82.0797 14.0003 82.5691C13.9603 83.0585 14.0403 83.0585 14.0803 83.5887L13.6803 83.0585C13.5603 82.8954 13.4403 82.5691 13.3203 82.3652C12.7602 81.1417 12.8402 81.5904 12.9202 80.7747ZM16.6006 43.5401C16.4005 43.7032 16.2805 44.4781 16.0405 44.3557C15.8005 44.2334 16.1205 43.5401 16.2005 43.2954C16.3912 42.6037 16.6182 41.923 16.8806 41.2562L17.3206 41.9495C17.1634 42.3766 17.0299 42.8123 16.9206 43.2546C16.8094 43.6418 16.648 44.0121 16.4405 44.3557C16.4405 44.0702 16.6006 43.8255 16.6006 43.5401ZM14.0403 41.9495C14.0495 41.18 14.1434 40.4139 14.3204 39.6657C14.6404 40.0327 14.7204 40.0328 15.2404 39.9104C15.1604 40.1959 15.0004 40.5221 14.9204 40.8484C14.873 41.1784 14.8062 41.5053 14.7204 41.8272L14.0403 41.9495ZM20.8009 33.1405C21.121 32.8958 22.1211 31.0606 22.3611 30.6119C22.0777 31.3488 21.7573 32.0703 21.401 32.7734C21.081 33.5483 20.9209 34.2416 20.5209 35.0573C20.1209 35.8729 19.6408 36.24 19.4408 37.0964C19.2136 37.8693 18.9191 38.62 18.5607 39.3394C17.8407 38.9316 19.1608 37.6674 19.0808 36.7294C18.9608 36.8925 18.9608 37.1372 18.7207 37.3003C18.4807 37.4634 18.5607 37.3411 18.2007 37.6674C18.2807 37.2187 18.8808 36.4031 19.0808 35.9137L19.6008 35.8321C19.8008 35.8321 19.4808 35.9137 19.6808 35.8321C19.8809 35.7506 20.4409 34.4863 20.4009 34.1193L19.7608 35.2612V34.8126L19.1208 35.4243C19.3116 34.7614 19.5662 34.1193 19.8809 33.5075C20.0809 33.0997 20.4409 32.0393 20.9209 31.9578C21.401 31.8762 20.9609 32.1209 20.9609 32.3248L21.321 31.9986L20.8009 33.1405ZM21.921 26.8599C22.081 26.6968 23.2812 24.7392 23.5212 24.3722C24.2012 23.3526 23.9212 22.6185 24.8013 21.599C25.1623 21.2417 25.6009 20.9762 26.0814 20.8241C26.9615 20.6202 25.9614 21.5582 25.8414 21.7213C24.8013 23.0671 24.6813 22.5777 23.9612 23.8828L23.2011 25.2286C22.9611 25.6364 22.8011 26.4521 22.6011 26.656C21.2107 27.9861 20.0121 29.5102 19.0408 31.1829C18.6807 31.7946 18.4807 31.8762 18.6807 32.5287C18.8808 33.1813 18.0807 33.6299 17.8807 33.7522L18.1607 32.7734C17.8007 33.3852 17.4406 34.0785 17.1206 34.731C16.8006 35.3835 16.4806 36.5662 15.7605 36.2807C15.6805 35.8321 16.1205 34.3232 16.3605 33.8338C16.6006 33.3444 17.4406 32.4064 17.5606 31.8762H17.3606L18.4807 30.1633L18.2407 30.2857C18.714 29.4567 19.2489 28.6659 19.8408 27.9203C19.9609 27.7571 20.7209 26.9007 20.7209 26.8599C20.7209 26.8191 20.8009 26.4521 20.9209 26.1666L21.241 25.4733C21.481 25.5141 21.401 25.718 21.761 25.3918C22.1336 24.8667 22.5342 24.3629 22.9611 23.8828C23.2011 24.1275 22.9611 24.2906 22.7211 24.6169C22.5523 24.8503 22.35 25.0565 22.121 25.2286C21.801 25.4733 21.121 26.289 21.121 26.6968L21.601 26.2074C21.521 26.7376 20.1209 28.2465 20.1609 28.9806C20.6409 28.8991 21.441 26.9007 21.961 26.4521V26.8599H21.921ZM93.1273 9.52727V9.32335V9.24179C93.6474 9.36413 95.4875 9.6904 95.6475 10.1798C95.1675 10.5061 93.6074 9.85353 93.0873 9.56805L93.1273 9.52727ZM73.0455 3.7769C74.1813 3.75169 75.3174 3.8062 76.4458 3.94003C77.5659 4.06238 78.686 4.06238 79.8461 4.18473C83.7665 4.63334 83.4865 4.38864 87.4868 5.61212C88.2069 5.81604 87.8468 5.93839 88.5669 6.18308C89.4921 6.42047 90.4009 6.7202 91.2872 7.0803C91.6872 7.325 92.1672 7.24343 92.7273 7.48813C93.2873 7.73283 92.7273 7.73283 93.5674 8.22222C94.4074 8.71161 95.5275 9.07866 95.8876 9.4457L94.4874 9.11944L94.9275 9.4457L92.2872 8.79318L92.3672 8.95631C91.7272 8.75239 91.2872 8.263 90.5671 8.09987C89.847 7.93674 89.047 7.85517 88.6869 7.36578C88.9669 7.16187 88.8469 7.40656 89.007 7.24343C89.167 7.0803 88.9669 7.28422 89.087 7.03952L89.767 7.16187C89.167 6.67247 88.2469 6.83561 87.5268 6.59091C86.8068 6.34621 88.0869 6.387 85.6867 5.57134C84.7666 5.28586 81.8463 4.38864 81.0062 4.55177L81.3263 4.75569C81.0062 4.75569 80.9662 4.63334 80.7262 4.75569L82.3264 5.24508L78.086 4.63334L79.4061 5.00038C78.446 5.12273 74.3257 4.9596 73.5656 4.59256C74.0939 4.49678 74.6334 4.48303 75.1657 4.55177C75.3861 4.6567 75.6274 4.70765 75.8705 4.70057C76.1136 4.69349 76.3517 4.62857 76.5659 4.51099L73.0455 3.7769ZM46.2032 9.16022C46.6512 9.10007 47.0703 8.90072 47.4033 8.58926C47.7233 8.18144 48.1233 8.09987 48.6034 7.85517C49.0834 7.61048 49.1634 7.325 49.7235 6.95795C51.3236 6.06073 51.8437 5.65291 53.7638 5.08195C54.2337 4.92142 54.7153 4.79869 55.204 4.7149C55.564 4.63334 56.2041 4.26629 56.6041 4.18473C57.0041 4.10316 57.4042 4.42942 58.2042 4.26629C60.3244 3.89925 61.6445 3.24672 63.9247 3.24672L64.7248 3.12438C66.1249 2.96125 69.0052 2.87968 70.2453 3.08359C69.1252 3.12438 69.3252 3.36907 69.1652 3.45064C68.7842 3.54877 68.3963 3.61694 68.0051 3.65455C67.1412 3.74227 66.2724 3.76952 65.4049 3.73612L66.1649 3.57299C65.8449 3.24672 63.3247 3.81768 62.8046 3.89925C60.8045 4.26629 61.8446 4.67412 59.4444 4.47021L60.0844 4.14395C59.4443 4.14395 54.2839 5.44899 54.1639 5.77525C54.7639 6.06073 56.044 5.28586 56.5241 5.61212C55.9162 6.05776 55.2581 6.42745 54.5639 6.71326C54.0839 6.87639 53.8038 6.83561 53.2838 6.99874C52.8924 7.11944 52.4905 7.20138 52.0837 7.24343C52.2437 6.95795 52.8438 6.83561 53.1638 6.67247C53.4673 6.56198 53.7225 6.34518 53.8839 6.06073L52.6437 6.46856C52.8438 6.59091 53.2038 6.30543 53.5638 6.30543C52.8438 6.95795 50.0435 7.36578 49.7635 8.0183L51.1636 7.52891C50.2035 8.18144 46.7632 9.56805 45.3231 10.2206C44.643 10.5061 43.923 10.71 43.2829 10.9954C42.0028 11.6072 42.8029 11.7295 41.8428 12.3821C40.8827 13.0346 40.6027 13.0346 40.0426 13.4016C39.4826 13.7687 39.1226 14.4212 38.6825 14.9106C38.2425 15.4 37.2424 15.6855 37.2024 16.1341C37.1624 16.5827 38.9625 14.7067 39.7626 14.6659L39.0425 15.2776C39.3226 15.4408 39.1226 15.1961 39.3626 15.2776C39.0025 15.6447 36.6423 17.5615 36.2823 17.643C35.9223 17.7246 37.3224 16.6235 37.6024 16.1341L36.1623 17.3576C36.0023 16.9905 36.2823 16.8682 36.4023 16.5827C36.5223 16.2972 34.6822 17.9285 34.4821 17.9285C34.2821 17.9285 34.2821 17.8877 33.442 18.4995L32.562 19.152C32.802 18.5403 35.0822 17.1944 35.7223 16.8274C36.3623 16.4603 36.7623 16.0117 37.3224 15.6039C37.8824 15.1961 38.5225 14.8698 38.7225 14.1765C38.2038 14.5068 37.7092 14.8748 37.2424 15.2776C36.9901 15.4575 36.7041 15.5825 36.4023 15.6447C36.1925 15.8673 35.965 16.0719 35.7223 16.2564C36.0823 15.6447 37.5224 14.2581 37.5624 14.1357C35.7223 14.829 32.842 18.214 31.2419 19.6006C30.9501 19.8019 30.6696 20.0197 30.4018 20.2531L28.2416 22.4554C27.4415 23.271 26.0014 24.6577 24.9613 25.0655C25.2278 24.6024 25.5358 24.1655 25.8814 23.7604C26.2814 23.2303 26.0014 23.475 26.5214 23.271C27.0415 23.0671 28.9216 20.5386 29.0817 20.2939C29.2417 20.0492 32.882 16.0525 33.442 15.8894L32.682 16.6642C33.002 16.6642 34.0021 15.5223 34.2421 15.2368C35.2022 13.9318 35.0022 14.5843 35.7223 14.0949C36.4423 13.6055 36.1223 13.9726 36.6023 13.6055C39.6026 11.3625 41.6828 10.2614 45.1231 8.67083C45.5631 8.46692 46.4032 7.52891 46.9232 7.52891L46.7632 7.73283C47.1633 7.65126 47.8033 7.36578 48.1634 7.52891C48.5234 7.69204 45.9632 8.58926 45.6831 8.91552L47.2433 8.5077C46.9632 8.67083 46.2832 8.83396 46.2032 9.16022ZM67.4851 0.391933C68.0051 0.391933 69.6452 0.310368 70.0053 0.514281C69.2889 0.610667 68.5676 0.665133 67.8451 0.677412C67.5651 0.718195 67.125 0.595847 66.765 0.595847H66.1249C65.4449 0.595847 66.1649 0.595847 65.7249 0.432716L64.0848 0.881326L66.965 0.799761C66.845 1.37072 65.2449 1.12602 64.7648 1.16681C64.2848 1.20759 64.7648 1.4115 64.2048 1.49307H62.7646C62.4046 1.49307 61.0045 1.90089 60.4044 1.94168C59.8044 1.98246 59.6444 1.81933 59.2443 1.77855L61.6045 1.37072L61.0845 1.16681C61.2445 0.718195 61.3245 0.881326 61.5645 0.63663C61.8046 0.391933 51.7237 2.39029 51.1636 2.8389L51.4836 3.04281L50.5236 3.5322V3.16516C49.6835 3.12438 49.4035 3.57299 48.8034 3.94003C48.2285 4.20686 47.6905 4.54966 47.2033 4.9596C47.8033 4.83725 48.4434 4.06238 49.3235 4.10316L48.7234 4.67412C49.2434 4.55177 49.5635 4.14395 49.9235 4.0216C52.3237 3.40986 53.0038 2.63498 55.484 1.98246C56.1641 1.81933 56.3241 2.06403 57.0841 1.86011C57.8442 1.6562 59.5244 1.00367 60.1244 1.16681C59.7644 1.4115 57.3642 1.69698 57.0441 2.22716L58.5243 1.94168C57.6259 2.34438 56.6868 2.64526 55.724 2.8389C55.204 2.96125 55.644 2.67577 54.4039 3.00203C53.1638 3.32829 51.5637 3.98081 50.1235 4.51099C49.6835 4.63334 49.1234 4.91882 48.6834 4.79647C48.2434 4.67412 47.6833 5.04116 47.2833 5.2043C46.8832 5.36743 46.3632 5.44899 46.0032 5.65291C43.843 7.03952 45.4031 5.85682 43.723 6.79482L42.4028 7.44735C41.6828 7.89596 38.1225 10.0574 37.9224 10.6692L38.6825 10.3021C38.3244 10.662 37.9362 10.9895 37.5224 11.2809C37.2024 11.5664 36.7623 12.2597 36.2823 12.0558C35.8023 11.8519 36.6823 11.1586 36.9224 10.9139C37.2673 10.6267 37.643 10.3805 38.0425 10.1798C38.8025 9.6904 39.4826 9.11944 40.2827 8.63005L40.1626 8.5077L41.5628 7.56969C42.5229 6.99874 42.5229 7.16187 43.0429 6.87639C43.5629 6.59091 45.8031 5.57134 46.0432 5.12273L43.3629 6.55013L43.4429 6.22386C43.2029 6.22386 38.8825 8.42613 38.4025 8.75239C37.9224 9.07866 36.7623 9.81275 36.0823 10.3021C34.6422 11.4033 35.1622 11.077 34.4021 12.5452C33.282 14.6659 34.4021 13.2385 32.722 14.7475C32.1219 15.3184 31.2819 16.0933 30.6418 16.5827C29.3217 17.6022 27.9216 19.152 26.6815 20.3755C26.7215 19.9269 28.6016 17.9693 29.0817 17.5207C29.5617 17.0721 29.1617 17.643 30.0017 16.8274C30.5451 16.2001 31.1192 15.6012 31.7219 15.0329C32.0419 14.8698 33.6421 13.6055 33.362 13.2385C33.082 12.8715 32.842 13.4424 32.682 13.6463C32.4289 13.8199 32.1612 13.97 31.8819 14.0949C31.3619 14.3396 31.4819 14.5843 30.7218 15.3592L28.1216 17.8469C28.3957 17.3432 28.7318 16.8773 29.1217 16.4603L30.0818 15.6447V15.3592C30.1618 15.0737 32.2419 13.7687 32.562 13.1569C31.8019 13.6871 28.8816 16.1341 28.4016 16.7458C27.6105 17.9306 26.7276 19.0489 25.7614 20.09C25.4334 20.4415 25.1387 20.8239 24.8813 21.2319C24.0412 22.333 22.8811 23.3118 22.041 24.3722C21.762 24.7258 21.4393 25.041 21.081 25.3102C19.7608 26.5337 18.6407 28.3689 17.7607 30.0002C16.7516 31.7109 15.8432 33.4813 15.0404 35.302C14.6004 36.1992 13.9603 36.8517 13.6803 37.912C13.4003 38.9724 12.8402 39.8288 12.5602 40.8892C12.1202 42.6021 12.0402 44.3557 11.7601 46.1094C11.4801 47.863 11.4001 46.7211 10.44 48.7603C9.99998 49.6983 10.52 50.3508 10.28 52.4307C10.2 53.4095 10.28 53.695 9.79996 53.8989L9.71996 53.1648C9.71996 53.8173 9.39993 55.1224 9.39993 56.4274C9.39993 57.7325 9.83997 60.3426 9.39993 61.6476C9.21312 62.169 9.14474 62.7267 9.19991 63.2789C9.27992 63.9722 9.0799 64.2169 9.15991 64.9102C9.23991 65.6035 9.23991 66.1745 9.31992 66.6639L9.47993 66.3784L9.55994 67.2756C9.35992 67.6019 9.59994 68.4991 9.71996 68.9069L9.83997 68.4991L10.16 69.8449C10.44 69.641 10.32 69.0293 10.32 68.703C10.32 68.3767 10.12 68.2544 10.04 67.8466C9.95998 67.4387 9.79996 65.7259 9.83997 65.522L10.24 66.7454C10.32 66.2968 10.12 65.4404 10.08 64.951C10.11 64.6883 10.1635 64.4289 10.24 64.1761C10.3162 62.5567 10.2627 60.9336 10.08 59.323C9.83997 59.7308 10.16 60.628 10.04 61.0359C9.88657 60.591 9.81866 60.1203 9.83997 59.6492C9.75996 59.1191 10.04 58.6297 9.91997 58.2218C9.77328 57.2066 9.78678 56.174 9.95998 55.1631V55.6525L10.2 55.8157L10.44 54.8369C10.595 55.4272 10.7152 56.0264 10.8001 56.6313C11.0001 57.4062 10.8801 57.814 10.8801 58.5889C10.8801 59.9755 10.72 61.2806 10.76 62.6672C10.8001 63.3197 10.8001 66.2153 11.0801 66.5415C11.3601 66.8678 11.1201 66.3784 11.2401 66.7862C11.335 67.27 11.3885 67.7612 11.4001 68.2544C11.4801 68.703 11.6001 68.6214 11.3601 69.0293C11.1201 69.4371 11.2001 69.641 11.0801 69.8041L10.68 68.6622C10.6 69.0293 10.9601 69.9265 10.8001 70.212C10.64 70.4975 10.72 72.088 10.8401 72.7405C10.9601 73.393 11.0401 73.1075 11.2001 73.393C11.2948 73.9866 11.3483 74.5862 11.3601 75.1875C11.0001 75.7584 10.8001 75.3506 10.9201 76.4517C11.0401 77.5529 11.0001 77.4713 11.0801 78.0423C11.1601 78.6132 11.3601 80.2037 11.6401 81.0194C11.9202 81.8351 12.0402 81.4272 12.3602 82.0798C12.5226 82.4854 12.7097 82.8804 12.9202 83.2625C13.2803 83.9965 13.2803 83.4256 13.6403 84.2004C13.8544 84.6032 14.0286 85.0267 14.1603 85.4647H13.7603C13.7603 85.8318 14.1603 86.158 14.4004 86.3212C14.6404 86.4843 14.7604 86.8513 14.9204 87.3407C15.0804 87.8301 15.4005 88.8905 15.6805 89.6653C15.9605 90.4402 17.0406 93.1727 17.6807 93.8252L17.1206 92.6833C17.8807 93.0911 19.1208 97.0062 19.9609 97.5772V97.0878C20.4409 97.3733 22.3611 100.187 22.4811 100.758L22.2011 100.636C22.6411 101.982 25.3213 103.572 26.3614 104.592L27.0415 105.285C27.5215 105.775 27.3615 105.53 27.6815 105.734C28.0016 105.938 29.6417 107.895 30.5218 108.262C31.4019 108.629 31.3219 108.792 32.0419 109.241C32.5884 109.637 33.1793 109.966 33.8021 110.22C33.6021 109.812 31.4819 108.629 30.9618 108.262C30.4418 107.895 28.8016 106.549 28.5216 105.897L29.0017 106.101C29.1217 105.856 28.7616 105.489 28.6016 105.326C29.6474 105.981 30.58 106.808 31.3619 107.773C31.8819 108.344 32.442 108.385 32.962 108.833L35.8823 111.199C36.4823 111.81 36.8824 111.688 37.5624 112.177C38.2425 112.667 38.2425 112.83 39.0425 113.36C39.8426 113.89 40.4027 114.176 40.8027 114.217L39.7626 113.401C40.2827 113.442 41.5228 114.257 42.0028 114.584L41.7228 114.706C41.9628 115.032 43.5229 116.011 43.923 116.215C46.6832 117.602 49.4435 117.928 52.2837 118.866C55.1965 119.848 58.1984 120.531 61.2445 120.905C61.8172 120.946 62.392 120.946 62.9647 120.905C63.7647 120.905 63.7247 120.905 64.3648 121.313C63.6447 121.435 61.3645 120.864 60.9245 121.068L61.4045 121.313C60.9245 121.394 60.0044 121.109 59.6444 121.313C59.9244 121.557 61.4045 121.476 61.8846 121.517L64.0448 121.761L66.325 121.965C67.085 122.047 68.0451 121.884 68.6452 122.006C69.2452 122.128 70.3253 122.373 70.6853 122.373C74.3657 122.332 73.7656 122.169 77.1659 121.68H76.6059C76.5259 121.476 76.6059 121.639 76.5659 121.476C76.5258 121.313 76.5659 121.517 76.4858 121.394C76.9954 121.239 77.5175 121.129 78.046 121.068C78.606 120.986 79.2061 120.864 79.6461 121.109L78.366 121.313C78.606 121.517 79.0861 121.435 79.4061 121.354C79.7261 121.272 79.9662 121.354 80.4062 121.272C82.2064 120.905 85.6867 120.416 87.1268 119.804C88.5669 119.192 90.7671 118.05 92.4873 117.071C93.121 116.764 93.7762 116.505 94.4474 116.296C95.6075 115.766 96.8876 115.155 98.0478 114.502C98.4078 114.257 98.6078 114.38 98.9278 114.176L101.488 112.626C101.995 112.168 102.597 111.834 103.248 111.647C103.768 111.525 107.769 108.221 107.849 108.058C107.929 107.895 107.289 108.425 107.009 108.466C106.088 108.711 105.848 109.975 104.728 110.016C105.408 109.404 106.448 108.466 107.169 107.895C107.889 107.324 107.209 107.895 107.409 107.977C107.609 108.058 107.329 107.324 108.289 106.713C109.249 106.101 108.809 106.427 109.489 105.693C110.169 104.959 111.169 103.531 111.649 103.246C111.398 103.753 111.059 104.209 110.649 104.592C110.649 105 110.769 104.347 110.769 104.755C110.769 105.163 108.569 106.998 108.529 107.324C109.369 107.039 113.089 102.512 113.769 101.533C114.127 100.982 114.514 100.451 114.929 99.9426C115.407 99.4874 115.836 98.9816 116.209 98.4336C116.609 97.9035 118.13 95.4565 118.61 95.2934V95.538C120.77 92.7648 122.29 88.4011 122.69 87.9117C123.09 87.4223 123.97 86.1988 124.05 85.3424L123.73 85.1385C123.85 83.915 124.81 82.8546 125.09 81.7535L123.37 82.1613C123.01 82.3244 122.85 83.3032 122.69 83.7111C122.336 84.7943 121.922 85.8564 121.45 86.8921C121.01 87.8709 120.49 88.8905 119.97 89.8285C119.45 90.7665 118.77 91.6229 118.29 92.5609C117.226 94.3871 115.979 96.0956 114.569 97.6588C113.009 99.1677 112.009 100.799 110.649 102.39L109.609 103.531C109.009 104.184 108.969 104.021 108.329 104.429C107.493 105.064 106.692 105.744 105.928 106.468C104.368 107.861 102.725 109.155 101.008 110.342C100.448 110.709 97.5277 112.708 97.0077 112.911C96.4876 113.115 96.3276 112.952 95.5275 113.36C94.576 113.897 93.5865 114.36 92.5673 114.747C91.9272 114.951 89.767 115.358 89.527 116.052C89.927 116.011 90.2871 115.685 90.8071 115.726C90.0871 115.889 87.8469 117.112 87.4068 117.234L86.3267 117.357C85.7667 117.438 85.9267 117.561 85.5266 117.846C85.1266 118.132 84.2465 118.172 83.5265 118.336C83.3602 118.543 83.1428 118.701 82.8968 118.794C82.6508 118.887 82.3849 118.912 82.1264 118.866C82.4064 118.662 83.0864 118.499 83.1664 118.132L81.0463 118.621L82.8864 117.846C80.5262 118.05 80.5662 118.376 78.526 118.866C77.4459 119.151 74.8457 119.722 73.8456 119.6L74.3257 119.355C73.9656 119.029 72.1255 119.478 71.6054 119.518C71.0854 119.559 69.5252 119.478 68.4851 119.518C67.445 119.559 66.565 119.274 65.6049 119.192C65.1304 119.095 64.6485 119.041 64.1648 119.029C62.6846 119.029 61.2445 119.029 59.8844 118.417C57.1641 117.153 57.8842 117.438 55.004 116.664L52.4437 115.889C52.6437 116.133 52.8838 116.174 53.1238 116.46C53.3638 116.745 54.4439 116.827 55.124 116.908L56.1641 117.194C55.604 117.398 52.8038 116.867 52.2437 116.582C51.6837 116.296 51.3236 115.685 50.9636 115.522L49.2434 114.828C47.1233 113.931 44.8831 112.504 42.7229 111.892C41.5953 111.595 40.5443 111.053 39.6426 110.301C39.3626 110.097 37.9224 108.833 37.6424 108.833C37.3624 108.833 37.6024 108.915 37.4024 108.915C37.0491 108.884 36.7126 108.748 36.4351 108.523C36.1575 108.298 35.9513 107.994 35.8423 107.651C35.7223 107.039 35.1222 106.916 34.6022 106.468C34.0821 106.019 32.442 104.225 32.2419 104.143L33.162 104.714C33.122 104.388 30.4818 102.512 30.3618 102.512C30.2418 102.512 28.3216 100.31 28.2016 99.8202L28.5216 100.065C28.1616 99.2901 24.3212 96.0682 23.0411 93.7436L24.8013 95.9051L23.9212 94.5185L26.5214 96.8023C26.3214 96.109 25.2813 95.7012 25.1613 95.171C25.0413 94.6408 24.3612 93.9475 24.0012 93.4174L22.2811 90.6441C22.1611 90.3994 21.881 89.7469 21.681 89.7469C22.2011 91.1335 21.761 90.3179 21.881 90.7665C22.0555 91.1556 22.2701 91.5247 22.5211 91.8676C22.8811 92.357 23.7212 93.4174 23.7212 94.0291C22.6811 93.7844 21.961 91.6229 21.561 90.8073C21.161 89.9916 20.8809 89.7877 20.5209 89.1352C19.7608 87.4631 16.5606 80.2445 16.6806 79.3473C16.8006 78.4501 17.5606 79.5104 17.9207 79.8367L19.0408 80.6931C19.7608 81.3049 19.4008 81.0194 19.8408 81.8351C20.2809 82.6507 19.8008 82.039 20.2009 83.2625C20.5498 84.185 21.0065 85.0613 21.561 85.8725C22.001 86.5658 22.4811 87.9525 22.8411 88.4419C22.2011 88.0748 21.161 85.3424 20.6809 84.9345C20.8409 85.8318 21.561 86.8921 21.361 87.7893C21.161 88.6865 21.721 88.5642 21.921 88.8497C22.6411 89.8693 22.5611 89.0536 23.0011 89.2983C23.4412 89.543 24.2012 91.0927 24.4413 91.4598C24.6813 91.8268 24.9213 92.3978 25.0813 92.5609C25.2413 92.724 25.7614 92.724 26.1214 93.3766L25.9214 93.4989C26.1614 94.233 27.5615 95.4565 27.9616 96.1498C28.3616 96.8431 27.6815 96.8839 29.1617 98.2297C29.6017 98.6375 29.6817 98.3113 29.9217 98.2297L30.3618 98.6375C30.3618 98.5968 28.9617 96.5576 28.7616 96.3129C28.5616 96.0682 27.5215 94.9263 27.0015 94.1514C26.4814 93.3766 24.6013 90.8073 24.2012 89.9916C23.8012 89.1759 24.1612 89.6245 24.0012 89.2983C22.9896 87.5958 22.0941 85.8244 21.321 83.9965C21.041 83.344 20.4809 81.7127 20.0009 81.3049C19.5208 80.897 19.5208 80.4484 19.3608 80.0406C19.2008 79.6328 19.0008 79.3473 18.3207 79.1842C18.5607 78.654 18.6407 78.3277 17.9607 78.1238C17.2806 77.9199 17.6007 77.4713 17.5606 77.1043C17.4313 76.6844 17.2427 76.2859 17.0006 75.9216C16.7206 75.4729 16.7606 74.9428 16.5606 74.4942L16.3605 74.5757C16.2405 74.1679 15.9205 73.7601 16.4806 73.5969C17.0406 73.4338 17.4006 74.6981 17.6407 74.8612C17.5529 74.5886 17.432 74.3282 17.2806 74.0863C17.0006 73.5562 17.0406 73.5562 17.2006 73.1891C17.2732 72.8622 17.2453 72.5205 17.1206 72.2103C17.0806 71.7617 17.1606 71.4355 17.1206 71.1092C17.0806 70.7829 16.9206 69.8449 16.4806 69.3148C16.0405 69.7634 16.2005 69.6818 16.0805 70.2935C15.9205 69.8449 15.8405 68.2136 16.1605 67.8058C15.4005 67.1125 16.3605 66.256 15.7205 65.7667C15.2004 66.9493 16.1205 68.9069 15.4805 69.1108C14.8404 69.3148 15.1604 68.0097 15.1204 67.6834C15.0804 67.3572 15.1204 67.8874 15.4005 67.6834C15.0404 66.1337 15.1204 63.8091 15.3204 62.1778L15.5205 64.0946C15.8405 63.2789 15.5205 62.3001 15.5205 61.5252L15.8005 61.2398C15.9605 60.5872 15.7205 60.4241 15.7205 59.8532C15.7205 59.2822 15.8005 58.8744 15.8005 58.385H15.6005C15.4405 57.2431 15.6805 55.0816 15.8005 53.8989C15.9205 52.7162 16.1205 52.3491 16.1205 51.7782C16.1205 51.2072 16.5606 50.6363 16.8406 50.1061C17.1206 49.5759 16.9206 49.5759 17.0406 49.2496L17.4006 48.4748C17.6807 47.7815 17.6007 47.1289 17.7207 46.4356C17.9101 45.8794 18.2253 45.3765 18.6407 44.9675C19.3208 44.4373 18.7608 43.744 18.9608 43.173C19.1608 42.6021 18.9208 41.7048 19.0808 41.1747C19.4808 39.7881 20.8009 37.8713 21.441 36.5254L22.5611 34.1193C22.7611 33.5483 22.8411 33.7522 23.0011 33.5075C23.1611 33.2628 23.1611 32.8958 23.2812 32.6103C23.4012 32.3248 24.2012 31.0198 24.4813 30.2449C24.3612 30.3265 22.8411 32.8142 22.6011 33.1813C22.3611 33.5483 21.961 34.1193 21.641 34.6494C21.321 35.1796 21.081 36.036 20.8009 36.24C20.9609 35.302 21.601 33.9153 21.921 32.9366C22.2411 31.9578 22.6411 31.9578 22.8011 31.5907C22.9611 31.2237 22.9611 30.408 23.3612 29.9186C24.3212 28.6136 24.2412 29.1438 25.1213 27.2678C25.4413 26.6152 26.2814 24.8208 26.9215 24.5761C26.7615 25.1063 25.3213 27.2678 24.8413 28.0426C24.3612 28.8175 24.8413 28.2873 24.6813 28.7359C24.5213 29.1845 24.0012 29.6332 23.9612 30.2449C24.5213 30.2041 24.4813 29.6332 24.6813 29.1845C24.8813 28.7359 25.2013 28.8583 25.5214 28.3281C25.6961 27.9051 25.9247 27.5074 26.2014 27.1454C26.4384 26.7953 26.721 26.4798 27.0415 26.2074L27.2415 26.4113L28.2016 25.5549C27.9616 26.289 26.3214 28.165 26.3614 28.2465C26.4014 28.3281 27.2815 27.4717 27.4015 27.3085C28.0416 26.3705 29.8417 23.8828 30.0017 23.0264L29.2017 23.9236C28.7216 23.7197 28.8816 23.4342 29.2817 23.1487C29.5947 22.9191 29.843 22.6097 30.0017 22.2515C30.5218 21.5174 31.2819 21.2319 32.0019 20.7017C32.722 20.1716 33.362 19.6414 34.0821 19.1928C34.8022 18.7442 34.7222 18.6218 35.1222 18.7849C35.5222 18.9481 35.8023 18.4587 36.0823 18.2548C38.1225 16.7458 40.0426 14.9922 42.2028 13.6463C43.723 12.7083 42.8029 13.4016 44.403 12.6675C45.1981 12.3675 45.9113 11.8781 46.4832 11.2401C47.4033 10.2206 47.5233 10.4653 48.6834 10.0167C49.8435 9.56805 50.4436 9.56805 51.3236 9.07866C52.2037 8.58926 55.284 6.83561 56.4041 7.16187C57.5242 7.48813 57.8842 7.40656 59.1643 6.87639C60.4444 6.34621 65.0048 5.97917 65.2049 5.8976V5.53056C65.7249 5.40821 66.2849 5.44899 66.765 5.36743L68.3251 5.12273C69.4363 4.93331 70.5592 4.82429 71.6854 4.79647L70.3653 5.04117C70.2853 5.28586 70.5253 5.2043 70.2453 5.48978C70.0899 5.57012 69.9425 5.66574 69.8053 5.77525C70.8454 5.77525 72.0055 5.57134 73.0855 5.61212C74.1656 5.65291 76.6059 5.93839 78.006 5.97917C78.486 5.97917 79.1261 5.77525 79.4861 5.81604L82.4064 6.387C84.2694 6.75979 86.1016 7.27789 87.8869 7.93674L89.127 8.263C90.007 8.58926 90.8071 9.32335 91.1671 9.48648C91.5408 9.67973 91.9016 9.89771 92.2472 10.139C91.6872 10.139 90.2871 9.36413 90.0471 9.52727L90.9671 10.0167L89.647 9.60883C90.0871 10.0167 92.2072 10.5061 93.5674 11.4441C94.9275 12.3821 96.4876 11.9334 99.8079 14.9922C100.288 15.4408 101.568 15.8894 102.288 16.3788C104.808 18.1732 104.688 20.0492 105.528 21.1096C105.852 21.4399 106.134 21.8098 106.368 22.2107C106.769 22.9448 106.689 22.8632 107.409 23.1895C108.129 23.5157 108.369 23.6789 108.529 24.0051C108.929 25.0655 109.089 24.3722 109.649 24.8616C110.209 25.351 110.729 26.656 111.249 27.227C111.769 27.7979 113.769 28.1242 115.369 31.0605C115.59 31.5077 115.777 31.9713 115.929 32.4472C116.129 32.9773 116.569 33.0589 116.929 33.3852C117.289 33.7114 118.33 34.6494 119.09 35.2204C119.85 35.7913 120.21 36.4031 120.77 37.5042C121.33 38.6054 121.85 39.7881 122.21 40.0327C122.13 39.3802 121.57 38.6461 121.57 38.4014C121.57 38.1567 121.69 37.8305 121.69 37.7897C122.445 39.2203 123.062 40.7229 123.53 42.2758L123.17 41.868L124.09 43.9887C124.17 43.7032 123.65 42.6836 123.53 42.3166L123.93 43.0099C123.93 42.3574 122.49 38.2791 122.05 37.7489V38.116C121.65 37.5042 120.73 36.3215 120.65 35.669L121.05 36.3215C121.05 35.7913 120.17 34.2008 119.85 33.6299C119.53 33.0589 119.73 33.6706 119.45 33.2628C119.399 33.0215 119.372 32.7755 119.37 32.5287C119.29 31.9798 119.183 31.4353 119.05 30.8974C119.49 31.3052 120.13 32.6511 120.49 33.222C120.927 34.0327 121.422 34.8096 121.97 35.5466L121.89 35.1796L123.01 37.0556C123.25 37.3411 123.25 36.7701 123.85 38.0752C124.052 38.5493 124.212 39.0406 124.33 39.5434C123.93 39.2987 123.89 38.3607 123.49 38.0344C123.09 37.7081 123.89 39.0947 124.05 39.3802C124.21 39.6657 124.29 39.4618 124.49 39.9104C124.69 40.359 124.65 40.359 124.89 40.5221C124.85 39.421 124.33 38.6461 123.77 37.5042C123.21 36.3623 122.69 34.8126 122.73 34.1193L123.29 34.5271C123.29 33.9561 121.97 32.5695 121.61 31.9986C121.25 31.4276 121.45 31.5092 121.29 31.2645C120.812 30.6285 120.421 29.9286 120.13 29.1845L120.85 30.1225C120.65 29.2253 119.37 27.3085 118.81 26.289C118.25 25.2694 117.489 25.1471 117.089 24.0459C116.689 22.9448 115.449 22.9448 114.689 22.4146C114.323 22.0921 114.035 21.6872 113.849 21.2319C113.329 20.0084 112.889 19.9269 111.929 19.1928C109.809 17.5615 108.249 17.643 107.049 16.1341C106.798 15.7123 106.571 15.2766 106.368 14.829C106.128 14.0134 106.328 13.9726 105.448 13.6871C104.568 13.4016 102.768 12.1781 102.328 10.9139C102.218 10.4165 101.968 9.96282 101.608 9.60883L99.2879 7.93674C98.3678 7.24343 97.6077 7.0803 96.6076 6.63169C94.7675 5.77525 91.4872 4.30708 89.567 3.73612C88.8069 3.49142 88.7669 3.08359 88.2869 2.96125L84.7266 2.55342L85.6867 2.96125C85.3266 3.12438 82.9264 2.55342 82.4064 2.3495C81.8863 2.14559 82.3664 2.30872 82.5264 2.5942L78.646 2.10481C78.446 2.02324 78.526 1.98246 78.286 1.86011C79.4061 1.61542 81.9263 2.30872 82.7664 2.18637C81.7263 1.57463 74.7657 1.28915 74.7257 1.32994C75.1675 1.50312 75.6224 1.6395 76.0858 1.73776C76.4858 1.73776 77.3259 1.6562 77.646 1.90089C77.966 2.14559 76.5659 1.81933 76.2058 1.81933L74.6457 1.73776C74.2007 1.61338 73.7454 1.53147 73.2856 1.49307L71.6454 1.4115L71.8054 1.00367C70.3253 0.555064 68.0851 1.45228 67.6051 1.16681C67.125 0.881326 70.5653 0.555064 70.8053 0.63663C71.0454 0.718195 70.6453 0.799761 71.5654 0.840543C72.4855 0.881326 73.4056 0.962892 73.6856 0.63663C73.9656 0.310368 73.8856 0.351151 74.4857 0.269585C73.5656 -0.26059 68.8052 0.106454 67.4851 0.391933Z" fill="#94C93D"/>
<path fill-rule="evenodd" clip-rule="evenodd" d="M29.3226 99.6979L28.9625 99.5755C29.0025 99.6979 30.2426 100.391 30.5627 100.84C30.2026 101.248 30.3227 101.329 30.7227 101.819C31.1227 102.308 32.8429 103.654 33.6029 104.184C34.954 105.165 36.3861 106.025 37.8833 106.753C38.7234 107.161 42.0037 108.67 42.4437 109.078C43.6438 110.22 45.484 110.791 46.7241 111.647C46.0841 111.729 44.7639 110.791 44.1639 110.75L46.5641 112.055C47.7642 112.708 46.6441 111.199 49.1643 112.748C48.7243 112.748 48.3243 112.463 47.8842 112.585C48.2442 112.993 50.0444 113.482 50.6045 113.482C50.3844 113.333 50.1409 113.222 49.8844 113.156C49.4444 112.993 49.4044 112.993 49.5244 112.708C49.6444 112.422 48.6843 112.137 48.4443 111.81C49.1243 111.892 51.6846 112.871 52.1646 113.279C51.9246 113.442 51.2445 113.115 50.7645 113.034C50.2844 112.952 50.3644 112.952 50.2444 113.034C50.634 113.236 51.0526 113.374 51.4845 113.442C51.9533 113.43 52.4185 113.528 52.8447 113.727L55.4449 114.42C56.3213 114.592 57.1789 114.852 58.0051 115.195C58.8852 115.685 59.9653 115.481 60.9654 115.481C60.6854 114.91 60.4053 115.155 59.8453 114.91L60.1653 114.788C59.5653 114.502 59.2852 114.788 58.7652 114.624L57.4451 114.217C56.925 114.094 57.205 114.42 56.365 114.298C55.5249 114.176 55.3649 114.094 54.9248 113.931L54.8448 113.686C54.2048 113.442 53.0447 113.279 52.3646 113.034C51.6846 112.789 52.1246 112.789 51.9646 112.708C51.8046 112.626 49.5244 112.055 48.7643 111.688V111.443C46.7452 110.771 44.8419 109.78 43.1238 108.507C42.7238 108.221 42.8438 108.629 42.1637 108.058C41.9478 107.932 41.7466 107.782 41.5637 107.61C41.4036 107.324 41.4836 107.243 41.1636 107.039C40.281 106.525 39.4502 105.924 38.6834 105.244C35.2831 102.43 33.923 102.104 31.0027 100.146C30.1626 99.6163 29.3626 99.0046 28.5625 98.3928C28.7625 98.8414 29.4026 99.0453 29.3226 99.6979Z" fill="#94C93D"/>
<path fill-rule="evenodd" clip-rule="evenodd" d="M32.1699 110.26C32.2099 110.668 34.2101 112.177 34.8102 112.748C35.4102 113.319 35.2902 112.83 35.7302 113.074C37.2104 113.972 38.2905 114.869 39.8906 115.725C41.4907 116.582 40.6107 116.215 40.9707 116.541L41.5308 116.826L46.1712 118.906C46.9388 119.29 47.7267 119.631 48.5314 119.926C50.2515 120.415 51.8917 121.109 53.6518 121.598C57.351 122.669 61.1417 123.379 64.9728 123.719C66.573 123.882 69.9333 124.126 71.3734 123.923L68.6532 123.678C68.5732 123.515 68.6932 123.515 68.4131 123.474C68.1331 123.433 67.253 123.555 66.853 123.27H69.4532C69.2932 122.862 68.4931 122.74 68.1331 122.699C66.1329 122.577 64.3328 123.066 62.7726 122.699L62.8526 122.454C62.4126 122.25 61.0925 122.21 60.4124 122.006L59.3323 121.679C58.8123 121.598 58.6523 121.679 58.2122 121.639C57.7722 121.598 58.2522 121.394 57.6922 121.353C55.772 121.19 54.2119 120.538 52.5317 120.13C50.8516 119.722 49.0514 118.988 47.1312 118.254L48.3314 118.498C48.0113 118.131 46.2112 117.805 45.6111 117.479C45.6111 117.275 45.5711 117.479 45.7711 117.316L40.6107 115.236C40.6107 115.48 40.9707 115.562 41.0907 115.807C41.2107 116.051 39.1705 114.787 39.0105 114.461L39.8106 114.665C39.5706 114.216 37.4504 114.012 37.2104 113.278C37.6504 113.278 40.0106 114.665 40.7707 114.869C40.7707 114.869 35.9303 111.973 35.8102 111.973L36.6903 112.911C36.0903 112.87 33.61 110.668 33.21 110.505L33.45 110.872C33.05 110.831 32.53 110.383 32.1699 110.22V110.26Z" fill="#94C93D"/>
<path fill-rule="evenodd" clip-rule="evenodd" d="M93.4526 118.295C92.7692 118.506 92.1009 118.765 91.4524 119.069C90.5723 119.396 85.8519 120.864 85.7318 121.313L86.3719 121.19C86.2119 121.639 81.3314 122.577 80.6914 122.577C80.9714 122.332 82.2915 121.965 82.7316 121.843L84.9318 121.353C84.9318 121.313 84.6517 121.19 84.6517 121.19C84.6517 121.19 84.6517 121.068 84.2917 121.149L83.5316 121.353C81.911 121.764 80.268 122.077 78.6112 122.291C77.9311 122.373 71.8506 123.025 71.7706 123.107L72.6106 123.229C72.0906 123.515 70.5304 123.229 70.1704 123.678C70.4504 123.882 70.9705 123.759 71.3305 123.719C71.6906 123.678 74.0508 123.8 74.6908 123.515L74.0108 123.27C74.6908 122.903 76.051 123.392 76.851 123.392C78.6912 123.433 83.0916 122.414 84.8918 121.965C85.8519 121.72 94.2526 119.192 94.1326 118.498H93.4125V118.295H93.4526Z" fill="#94C93D"/>
<path fill-rule="evenodd" clip-rule="evenodd" d="M41.408 109.934L40.7279 109.648C40.8079 109.934 44.9283 112.381 45.7683 112.422C46.4386 112.518 47.0655 112.816 47.5685 113.278L51.3689 114.665C52.0889 114.95 54.8092 116.133 55.3692 115.766C55.2492 115.44 54.0891 115.276 53.6891 115.195L52.809 114.95C52.0489 114.787 52.529 114.746 52.449 114.379C52.3689 114.012 51.6489 114.298 51.0488 114.175C49.5687 113.971 46.6484 112.503 45.2883 111.769C44.7163 111.566 44.2061 111.215 43.8082 110.75C43.5281 110.464 43.8082 110.586 43.7282 110.423L40.4079 108.833L38.8877 107.854C38.4477 107.528 37.8476 106.875 37.2876 107.079C36.7275 107.283 37.9676 107.609 38.1677 107.854C38.4657 108.157 38.802 108.417 39.1678 108.629C39.8878 109.118 40.8079 109.404 41.408 109.934Z" fill="#94C93D"/>
<path fill-rule="evenodd" clip-rule="evenodd" d="M62.7297 115.685L62.9297 115.888L62.3297 116.011L63.2897 116.215C63.0097 116.582 61.6096 116.296 61.2096 116.255L61.7696 116.133C61.4496 115.848 61.2896 115.929 60.8895 115.929C60.4895 115.929 60.8095 116.133 60.0895 116.133C59.3694 116.133 58.4093 116.011 58.0093 116.174C58.4093 116.419 65.77 118.009 66.33 116.908C66.3969 116.573 66.3399 116.224 66.17 115.929C65.6499 115.725 63.2497 115.481 62.7297 115.685Z" fill="#94C93D"/>
<path fill-rule="evenodd" clip-rule="evenodd" d="M126.287 41.9085C125.887 41.5823 125.687 40.318 125.447 39.7063C125.207 39.0945 124.847 38.3197 124.567 37.6671C124.447 37.8303 125.847 40.9705 125.767 41.7454L125.167 40.5219C125.207 40.9298 126.047 42.9281 126.287 43.0912L126.047 41.9085C126.327 42.194 126.567 43.0505 126.687 43.4583C126.807 43.8661 126.847 44.6002 127.447 44.7633L127.367 44.3963C127.647 44.7226 127.407 44.3147 127.647 44.6002C127.887 44.8857 127.687 44.8041 127.927 44.9673C128.207 44.2739 125.087 37.2593 124.367 36.8923C124.607 37.7079 126.287 40.8074 126.287 41.9085Z" fill="#94C93D"/>
<path fill-rule="evenodd" clip-rule="evenodd" d="M42.6113 10.5875L42.7713 10.302C42.3312 10.4243 42.5313 10.5059 42.4512 10.6282C41.5208 11.0438 40.6245 11.5348 39.771 12.0964H40.131C39.9155 12.356 39.6586 12.5767 39.371 12.7489C38.8109 13.1976 39.1309 13.0752 38.5309 13.0752C37.967 13.3524 37.453 13.7247 37.0107 14.1763L37.8908 13.6054L37.8108 13.9724C38.1308 13.8909 38.7709 13.0752 39.571 12.9529C40.3711 12.8305 40.131 12.6674 40.5311 12.5043C40.9311 12.3411 40.7311 12.545 40.9711 12.3411C41.2111 12.1372 44.5714 10.2204 44.7715 9.81259C44.3314 9.81259 43.0913 10.6282 42.6113 10.6282V10.5875Z" fill="#94C93D"/>
<path fill-rule="evenodd" clip-rule="evenodd" d="M127.089 47.0884C127.569 46.3951 127.409 46.4359 127.209 45.6202C127.104 45.1012 126.885 44.6132 126.569 44.1928C126.409 44.4375 126.529 44.5599 126.529 44.8453C126.329 44.4375 126.129 43.3772 125.769 43.214C125.409 43.0509 126.249 44.9269 126.369 45.2532C126.489 45.5794 127.089 47.0884 127.089 47.0884Z" fill="#94C93D"/>
<path fill-rule="evenodd" clip-rule="evenodd" d="M108.296 109.078L108.496 109.69C108.935 109.433 109.274 109.03 109.456 108.548C109.256 108.385 109.256 108.507 109.136 108.466C109.016 108.426 110.136 108.018 110.216 107.447C109.776 107.528 108.656 108.711 108.296 109.078Z" fill="#94C93D"/>
<path d="M15.6814 59.5681V53.1652C15.6879 52.4913 15.6072 51.8193 15.4414 51.1669C15.2918 50.6017 14.9864 50.0922 14.5613 49.6987C14.0765 49.2717 13.5015 48.9647 12.8811 48.8015C11.9935 48.565 11.0781 48.4552 10.1609 48.4752H1.48013V59.5681H0V35.0577H10.921C13.0412 35.0577 14.6813 35.6287 15.8414 36.8114C17.0015 37.9941 17.6016 39.5846 17.6016 41.5829C17.6438 43.0831 17.1776 44.5522 16.2814 45.7428C15.4014 46.8847 14.1212 47.578 12.4011 47.8227C14.1212 47.945 15.3214 48.4344 16.0414 49.2501C16.7615 50.0657 17.1215 51.2892 17.1215 52.9205V59.5681H15.6814ZM10.4009 47.1702C11.3134 47.1841 12.221 47.0322 13.0812 46.7216C13.7722 46.4698 14.4005 46.066 14.9213 45.5389C15.3674 45.0292 15.7076 44.4326 15.9214 43.7852C16.1283 43.0978 16.2361 42.3835 16.2414 41.6645C16.2414 40.0332 15.7614 38.7689 14.8013 37.8309C13.8412 36.8929 12.5211 36.4035 10.7209 36.4035H1.48013V47.1702H10.4009ZM22.162 59.5681V35.0577H23.6021V59.5681H22.162ZM43.6039 42.2762C43.5238 40.074 42.8838 38.4427 41.6837 37.3008C40.4836 36.1588 38.7234 35.5879 36.3232 35.5879C35.2952 35.5637 34.2698 35.7012 33.2829 35.9957C32.528 36.2065 31.8211 36.5668 31.2028 37.0561C30.6684 37.4822 30.2543 38.0451 30.0026 38.6874C29.7251 39.3292 29.5886 40.0252 29.6026 40.7265C29.5588 41.7246 29.7947 42.7148 30.2827 43.5813C30.7329 44.2759 31.3535 44.8382 32.0828 45.2126C32.8946 45.6053 33.7564 45.8799 34.6431 46.0283L37.6033 46.4769C38.5999 46.5906 39.5886 46.7677 40.5636 47.007C41.4633 47.19 42.3279 47.5205 43.1238 47.9858C43.8786 48.4702 44.4985 49.1443 44.924 49.9434C45.408 50.9727 45.6413 52.1059 45.604 53.2468C45.6249 54.2483 45.4234 55.2417 45.0147 56.1528C44.606 57.0638 44.0006 57.8688 43.2438 58.5078C42.4731 59.1369 41.5901 59.6078 40.6436 59.8944C39.5873 60.2585 38.4782 60.4378 37.3633 60.4246C34.163 60.4246 31.7628 59.7313 30.2027 58.3854C28.6425 57.0396 27.8025 54.9597 27.6824 52.2272H29.1626C29.2026 54.5518 29.9226 56.3055 31.2828 57.4066C32.6429 58.5078 34.6431 59.0787 37.2433 59.0787C38.1922 59.0983 39.138 58.9606 40.0435 58.6709C40.8309 58.4405 41.5653 58.0523 42.2037 57.529C42.7921 57.0144 43.2806 56.3919 43.6439 55.6938C43.9886 54.9116 44.1659 54.0635 44.1639 53.206C44.2004 52.3496 44.0359 51.4967 43.6839 50.7183C43.4007 50.0927 42.9411 49.5674 42.3637 49.2093C41.7507 48.8166 41.0731 48.5403 40.3636 48.3937C39.6035 48.2305 38.7634 48.0674 37.8433 47.945C36.419 47.7893 35.0036 47.5579 33.603 47.2517C32.5437 47.0362 31.5287 46.6361 30.6027 46.069C29.8459 45.5641 29.2376 44.8594 28.8425 44.0299C28.4067 42.9871 28.2018 41.8592 28.2425 40.7265C28.2393 39.873 28.4025 39.0274 28.7225 38.2388C29.032 37.4271 29.5419 36.7107 30.2027 36.1588C30.9432 35.5293 31.8002 35.0577 32.7229 34.7722C33.8844 34.3869 35.1022 34.2076 36.3232 34.2421C37.5723 34.227 38.8154 34.4198 40.0035 34.813C41.0134 35.1342 41.9419 35.6771 42.7238 36.4035C43.4786 37.1095 44.055 37.991 44.4039 38.9728C44.8118 40.0254 45.0287 41.1447 45.044 42.2762H43.6039ZM49.4444 59.5681V35.0577H65.4058V36.4035H50.9245V45.9875H64.4857V47.3333H50.9245V58.2223H65.9658V59.5681H49.4444Z" fill="#231F20"/>
<path d="M46.3676 101.981V95.5783C46.3769 94.9176 46.2961 94.2588 46.1276 93.6207C46.0132 93.0506 45.718 92.5347 45.2875 92.1526C44.8255 91.7061 44.2619 91.3838 43.6474 91.2146C42.7588 90.9836 41.844 90.8738 40.9271 90.8883H32.2863V101.981H30.8462V77.4708H41.6872C43.7674 77.4708 45.4075 78.0825 46.5676 79.2244C47.7277 80.3663 48.2878 81.9976 48.2878 83.996C48.3257 85.489 47.8754 86.9525 47.0077 88.1558C46.1276 89.2978 44.8475 89.9911 43.1673 90.2358C44.8475 90.3581 46.0476 90.8475 46.7676 91.6632C47.4877 92.4788 47.8477 93.7431 47.8477 95.3744V101.981H46.3676ZM41.1671 89.5832C42.068 89.618 42.9663 89.4653 43.8074 89.1346C44.4917 88.8931 45.1091 88.4875 45.6075 87.9519C46.0653 87.4438 46.419 86.8476 46.6476 86.1983C46.8575 85.5256 46.9655 84.8242 46.9677 84.1184C46.9677 82.487 46.4876 81.182 45.5275 80.244C44.5674 79.306 43.2473 78.8166 41.4872 78.8166H32.2863V89.5832H41.1671Z" fill="#231F20"/>
<path d="M13.7234 78.736V83.793C13.7332 83.8437 13.731 83.896 13.7171 83.9456C13.7032 83.9952 13.678 84.0408 13.6434 84.0785L13.3634 84.1601C13.3146 84.1668 13.2649 84.162 13.2182 84.1459C13.1715 84.1298 13.1291 84.103 13.0942 84.0675C13.0594 84.0319 13.033 83.9887 13.0173 83.9411C13.0015 83.8935 12.9968 83.8428 13.0034 83.793V75.351C13.0034 73.842 13.3634 72.7001 14.0035 71.8845C14.6435 71.0688 15.6836 70.661 17.1237 70.661C20.404 70.661 21.8042 72.537 21.5641 76.0035H20.8441C20.9641 73.475 20.084 71.3543 17.1637 71.3543C15.9636 71.3543 15.1236 71.7213 14.5635 72.4146C14.0035 73.1079 13.7234 74.0867 13.7234 75.351V77.9611H21.6041V78.736H13.7234Z" fill="#231F20"/>
<path d="M52.8091 101.981V77.4708H54.2892V101.981H52.8091Z" fill="#231F20"/>
<path d="M85.1733 101.981V77.4708H101.055V78.8166H86.6535V88.4005H100.135V89.7464H86.6535V100.635H101.575V101.981H85.1733Z" fill="#231F20"/>
<path fill-rule="evenodd" clip-rule="evenodd" d="M5.68055 72.8633C7.08934 72.9845 8.40208 73.6407 9.3588 74.7019C10.3155 75.7631 10.8465 77.1519 10.8465 78.5932C10.8465 80.0346 10.3155 81.4233 9.3588 82.4845C8.40208 83.5457 7.08934 84.2019 5.68055 84.3232C4.27177 84.2019 2.95903 83.5457 2.00231 82.4845C1.04558 81.4233 0.514648 80.0346 0.514648 78.5932C0.514648 77.1519 1.04558 75.7631 2.00231 74.7019C2.95903 73.6407 4.27177 72.9845 5.68055 72.8633ZM5.68055 73.6381C6.89352 73.7504 8.02146 74.321 8.84282 75.2379C9.66418 76.1547 10.1196 77.3515 10.1196 78.5932C10.1196 79.8349 9.66418 81.0317 8.84282 81.9486C8.02146 82.8654 6.89352 83.436 5.68055 83.5483C4.46759 83.436 3.33964 82.8654 2.51829 81.9486C1.69693 81.0317 1.24152 79.8349 1.24152 78.5932C1.24152 77.3515 1.69693 76.1547 2.51829 75.2379C3.33964 74.321 4.46759 73.7504 5.68055 73.6381Z" fill="#231F20"/>
<path fill-rule="evenodd" clip-rule="evenodd" d="M135.098 40.6445C139.178 41.9903 139.498 52.3491 135.818 63.7275C132.137 75.1059 125.857 83.2625 121.777 81.8758C117.696 80.4892 117.416 70.1712 121.096 58.7928C124.777 47.4144 131.057 39.2579 135.098 40.6445Z" fill="#94C93D"/>
<path d="M135.214 40.3594C137.334 41.0935 138.494 44.1114 138.654 48.4344C138.814 52.7574 137.934 58.0591 136.094 63.7687H136.054C134.214 69.5191 131.694 74.413 129.173 77.7164C126.653 81.0198 123.853 82.8143 121.693 82.121C119.532 81.4277 118.412 78.3689 118.252 74.046C118.092 69.723 118.972 64.3805 120.853 58.6709C122.693 52.9205 125.173 48.0266 127.733 44.7232C130.293 41.4198 133.054 39.6661 135.214 40.3594ZM121.613 81.5092L134.774 40.8488C132.894 40.4002 130.533 42.0723 128.173 45.0902C125.813 48.1081 123.173 53.206 121.373 58.8748C119.532 64.5436 118.692 69.9269 118.812 74.0868C118.932 78.2466 119.853 80.7344 121.613 81.5092ZM135.294 41.0119L122.133 81.6724C124.013 82.121 126.373 80.4489 128.733 77.4309C131.094 74.413 133.734 69.3152 135.534 63.6464C137.374 57.9776 138.214 52.5942 138.094 48.4344C137.974 44.2746 137.014 41.7868 135.294 41.0119Z" fill="#231F20"/>
<path fill-rule="evenodd" clip-rule="evenodd" d="M103.289 7.48788C107.409 6.22362 113.41 14.5433 116.77 26.044C120.131 37.5448 119.491 47.8628 115.37 49.1271C111.25 50.3913 105.249 42.0309 101.929 30.5301C98.6087 19.0294 99.1688 8.71137 103.289 7.48788Z" fill="#94C93D"/>
<path d="M103.208 7.20223C105.368 6.5497 108.008 8.34414 110.528 11.8107C113.048 15.2772 115.329 20.2119 117.009 25.9623H117.049C118.689 31.7534 119.369 37.2183 119.129 41.4189C118.889 45.6196 117.649 48.6783 115.449 49.3308C113.248 49.9833 110.648 48.1889 108.128 44.7223C105.608 41.2558 103.328 36.3619 101.647 30.5707C99.9673 24.7796 99.2872 19.3147 99.5273 15.1141C99.7673 10.9135 101.047 7.81397 103.208 7.16144V7.20223ZM115.049 48.923L103.128 7.81397C101.327 8.58884 100.327 11.3213 100.087 15.1549C99.8473 18.9884 100.527 24.7388 102.167 30.4484C103.808 36.158 106.168 41.0927 108.568 44.4369C110.968 47.781 113.168 49.2492 115.049 48.923ZM103.648 7.69162L115.569 48.7598C117.329 48.0257 118.369 45.2933 118.609 41.4189C118.849 37.5446 118.169 31.835 116.489 26.1254C114.849 20.4158 112.528 15.4811 110.088 12.1369C107.648 8.79275 105.528 7.32457 103.648 7.69162Z" fill="#231F20"/>
<path fill-rule="evenodd" clip-rule="evenodd" d="M76.2907 44.7636C78.2109 40.8485 88.2918 41.9904 98.8127 47.2921C109.334 52.5939 116.374 60.0979 114.494 64.013C112.614 67.9282 102.493 66.7863 91.9721 61.4437C81.4512 56.1012 74.4105 48.6787 76.2907 44.7636Z" fill="#94C93D"/>
<path d="M76.042 44.6409C77.0421 42.561 80.1624 41.8269 84.3628 42.2755C88.5631 42.7241 93.6436 44.3962 98.9241 47.0471C104.205 49.698 108.645 52.9606 111.525 55.9785C114.405 58.9964 115.726 62.0551 114.725 64.1351C113.725 66.215 110.605 66.9491 106.445 66.4597C102.284 65.9703 97.1239 64.3798 91.8434 61.6881C86.563 58.9964 82.1226 55.8154 79.2823 52.7567C76.442 49.698 75.0419 46.6801 76.042 44.6409ZM114.085 64.1351L76.4421 45.1303C75.762 46.9655 77.0421 49.5756 79.6423 52.3896C82.2426 55.2036 86.843 58.5478 92.0834 61.1987C97.3239 63.8496 102.444 65.4401 106.485 65.8887C110.525 66.3373 113.085 65.7664 114.085 64.1351ZM76.6821 44.6409L114.325 63.6049C115.005 61.7697 113.725 59.1596 111.125 56.3863C108.525 53.6131 103.925 50.1874 98.684 47.5365C93.4436 44.8856 88.3231 43.2951 84.2828 42.8465C80.2424 42.3979 77.6822 42.9688 76.6821 44.6409Z" fill="#231F20"/>
<path fill-rule="evenodd" clip-rule="evenodd" d="M70.2828 77.2673C75.4032 77.2673 79.8036 80.6931 81.5238 85.4647H80.1636C79.3607 83.4581 77.9949 81.7377 76.2373 80.5189C74.4796 79.3002 72.4083 78.6372 70.2828 78.6132C64.3223 78.6132 59.5218 83.711 59.5218 89.9915C59.5218 96.2721 64.3223 101.411 70.2828 101.411C72.3981 101.387 74.4598 100.729 76.2101 99.5174C77.9604 98.3061 79.3216 96.5957 80.1236 94.6H81.4837C80.6564 96.9592 79.1386 99.0026 77.1354 100.454C75.1323 101.905 72.7403 102.695 70.2828 102.716C63.6422 102.716 58.2817 97.047 58.2817 89.9915C58.2817 82.9361 63.6422 77.2673 70.2828 77.2673Z" fill="#231F20"/>
</svg>
